HIERARCHY
ROOT Hips
{
	OFFSET 0.000000 0.000000 0.000000
	CHANNELS 6 Xposition Yposition Zposition Zrotation Xrotation Yrotation
	JOINT RightUpLeg
	{
		OFFSET -9.711200 0.000000 0.000000
		CHANNELS 3 Zrotation Xrotation Yrotation
		JOINT RightLeg
		{
			OFFSET 0.000000 -42.071800 0.000000
			CHANNELS 3 Zrotation Xrotation Yrotation
			JOINT RightFoot
			{
				OFFSET 0.000000 -40.121000 0.000000
				CHANNELS 3 Zrotation Xrotation Yrotation
				JOINT RightToe
				{
					OFFSET 0.000000 -9.631400 3.100600
					CHANNELS 3 Zrotation Xrotation Yrotation
					JOINT RightToeEnd
					{
						OFFSET 0.000000 -4.048200 4.118000
						CHANNELS 3 Zrotation Xrotation Yrotation
						End Site
						{
						    OFFSET 0.000000 -3.505200 3.565600
						}
					}
				}
			}
		}
	}
	JOINT LeftUpLeg
	{
		OFFSET 9.711200 0.000000 0.000000
		CHANNELS 3 Zrotation Xrotation Yrotation
		JOINT LeftLeg
		{
			OFFSET 0.000000 -42.071800 0.000000
			CHANNELS 3 Zrotation Xrotation Yrotation
			JOINT LeftFoot
			{
				OFFSET 0.000000 -40.121000 0.000000
				CHANNELS 3 Zrotation Xrotation Yrotation
				JOINT LeftToe
				{
					OFFSET 0.000000 -9.631400 3.100600
					CHANNELS 3 Zrotation Xrotation Yrotation
					JOINT LeftToeEnd
					{
						OFFSET 0.000000 -4.048200 4.118000
						CHANNELS 3 Zrotation Xrotation Yrotation
						End Site
						{
						    OFFSET 0.000000 -3.505200 3.565600
						}
					}
				}
			}
		}
	}
	JOINT Spine
	{
		OFFSET 0.000000 14.595200 0.000000
		CHANNELS 3 Zrotation Xrotation Yrotation
		JOINT Spine1
		{
			OFFSET 0.000000 9.770300 0.000000
			CHANNELS 3 Zrotation Xrotation Yrotation
			JOINT Spine2
			{
				OFFSET 0.000000 14.330100 0.000000
				CHANNELS 3 Zrotation Xrotation Yrotation
				JOINT LeftShoulder
				{
					OFFSET 2.000000 14.330100 0.000000
					CHANNELS 3 Zrotation Xrotation Yrotation
					JOINT LeftArm
					{
						OFFSET 14.369100 0.000000 0.000000
						CHANNELS 3 Zrotation Xrotation Yrotation
						JOINT LeftForeArm
						{
							OFFSET 0.000000 -27.196400 0.000000
							CHANNELS 3 Zrotation Xrotation Yrotation
							JOINT LeftHand
							{
								OFFSET 0.000000 -24.849000 0.000000
								CHANNELS 3 Zrotation Xrotation Yrotation
								JOINT LeftFinger0
								{
									OFFSET 0.000000 -7.367300 0.000000
									CHANNELS 3 Zrotation Xrotation Yrotation
									End Site
									{
									    OFFSET 0.000000 -5.000000 0.000000
									}
								}
							}
						}
					}
				}
				JOINT RightShoulder
				{
					OFFSET -2.000000 14.330100 0.000000
					CHANNELS 3 Zrotation Xrotation Yrotation
					JOINT RightArm
					{
						OFFSET -14.369100 0.000000 0.000000
						CHANNELS 3 Zrotation Xrotation Yrotation
						JOINT RightForeArm
						{
							OFFSET 0.000000 -27.196400 0.000000
							CHANNELS 3 Zrotation Xrotation Yrotation
							JOINT RightHand
							{
								OFFSET 0.000000 -24.849000 0.000000
								CHANNELS 3 Zrotation Xrotation Yrotation
								JOINT RightFinger0
								{
									OFFSET 0.000000 -7.367300 0.000000
									CHANNELS 3 Zrotation Xrotation Yrotation
									End Site
									{
									    OFFSET 0.000000 -5.000000 0.000000
									}
								}
							}
						}
					}
				}
				JOINT Neck
				{
					OFFSET 0.000000 14.330100 0.000000
					CHANNELS 3 Zrotation Xrotation Yrotation
					JOINT Head
					{
						OFFSET 0.000000 8.944300 0.000000
						CHANNELS 3 Zrotation Xrotation Yrotation
						JOINT HeadTip
						{
							OFFSET 0.000000 10.000000 0.000000
							CHANNELS 3 Zrotation Xrotation Yrotation
							End Site
							{
							    OFFSET 0.000000 5.000000 0.000000
							}
						}
					}
				}
			}
		}
	}
}
MOTION
Frames:	14
Frame Time:	0.033332
-224.677700 88.281400 -68.216200 -1.207394 -0.766613 1.268274 0.016505 -4.907404 -15.485117 -0.000000 8.830759 -0.000000 -7.051332 -45.501805 -27.583551 -0.000000 0.346485 -0.000000 -0.000000 0.000000 -0.000000 1.668558 -3.808204 8.409922 -0.000000 6.782613 -0.000000 -2.576203 -50.921567 -9.775483 0.000000 1.340996 -0.000000 0.000000 -0.000000 -0.000000 3.078970 -0.274792 1.104463 0.000000 2.942229 -0.000000 0.000000 -0.000000 -0.000000 5.245782 0.000000 7.260157 91.619327 -13.668338 60.764533 -0.000000 -9.139266 -0.000000 5.345275 13.422161 -44.779525 0.000000 0.000000 -0.000000 -10.936803 -0.000000 -5.256203 -97.154903 -8.087982 -14.702106 -0.000018 -6.573475 -0.000001 4.297591 14.926455 17.580312 0.000000 0.000000 -0.000000 0.000000 -0.000000 -0.000000 -0.793138 16.133753 0.283566 0.000000 0.000000 -0.000000 
-224.660000 88.288500 -68.174300 -1.218541 -0.728854 1.247267 0.026633 -4.887440 -15.493104 0.000000 8.761959 -0.000000 -7.039870 -45.481628 -27.554822 -0.000000 0.413244 0.000000 -0.000000 -0.000000 0.000000 1.662801 -3.782385 8.425701 -0.000000 6.722490 -0.000000 -2.565490 -50.906101 -9.734025 -0.000000 1.343173 0.000000 0.000000 0.000000 -0.000000 3.074396 -0.290324 1.115079 0.000000 2.896178 -0.000000 -0.000000 0.000000 -0.000000 5.622925 0.000000 7.384448 91.940709 -13.625584 60.924998 0.000000 -8.895493 -0.000000 5.556008 13.598724 -44.970901 -0.000000 -0.000000 -0.000000 -11.318244 -0.000000 -5.528337 -97.495693 -7.949851 -14.646723 -0.000017 -6.255553 -0.000001 4.256508 15.098920 17.686295 0.000000 0.000000 -0.000000 -0.000000 0.000000 -0.000000 -0.807135 16.122870 0.256286 0.000000 0.000000 0.000000 
-224.643500 88.293100 -68.135100 -1.222326 -0.676764 1.254400 0.006001 -4.934825 -15.590613 -0.000000 8.812386 -0.000000 -6.949484 -45.526819 -27.443237 -0.000000 0.426862 0.000000 -0.000000 0.000000 -0.000000 1.654906 -3.789726 8.401653 0.000000 6.662576 -0.000000 -2.661052 -50.815042 -9.743677 0.000000 1.165137 -0.000000 0.000000 0.000000 -0.000000 3.049304 -0.335554 1.086709 -0.000000 2.860540 -0.000000 0.000000 -0.000000 -0.000000 5.863182 0.000000 7.578994 92.276743 -13.703529 61.136741 0.000000 -8.657002 -0.000000 5.790675 13.619735 -45.227084 0.000000 0.000000 -0.000000 -11.656802 0.000000 -5.779391 -97.626680 -7.831338 -14.732023 -0.000016 -5.931863 -0.000001 4.188678 15.265918 17.820621 -0.000000 0.000000 -0.000000 0.000000 -0.000000 -0.000000 -0.755200 16.086517 0.350674 -0.000000 0.000000 -0.000000 
-224.631700 88.298800 -68.091100 -1.231195 -0.641804 1.241070 0.010330 -4.938235 -15.599539 -0.000000 8.797449 0.000000 -6.954664 -45.499406 -27.412641 -0.000000 0.440542 0.000000 -0.000000 -0.000000 -0.000000 1.651484 -3.767165 8.400219 -0.000000 6.606994 -0.000000 -2.691264 -50.820621 -9.765752 0.000000 1.214906 -0.000000 0.000000 0.000000 -0.000000 3.023117 -0.387278 1.061804 -0.000000 2.833652 -0.000000 -0.000000 -0.000000 -0.000000 6.014464 0.000000 7.658681 92.521112 -13.634663 61.223313 -0.000000 -8.656406 -0.000000 5.976220 13.640835 -45.518171 0.000000 0.000000 -0.000000 -11.879480 -0.000000 -6.013227 -97.693257 -7.745220 -14.661664 -0.000015 -5.761201 -0.000001 4.181007 15.479729 18.013083 0.000000 -0.000000 -0.000000 -0.000000 -0.000000 -0.000000 -0.722846 16.165553 0.352868 0.000000 0.000000 0.000000 
-224.618200 88.301100 -68.055000 -1.223893 -0.626404 1.227071 -0.020389 -4.968070 -15.675712 0.000000 8.879592 -0.000000 -6.865815 -45.558982 -27.291066 -0.000000 0.455958 0.000000 -0.000000 0.000000 0.000000 1.626618 -3.750197 8.367231 -0.000000 6.608027 -0.000000 -2.471581 -50.909303 -9.639012 -0.000000 1.394205 -0.000000 -0.000000 -0.000000 0.000000 2.970700 -0.411679 1.007562 -0.000000 2.807958 -0.000000 0.000000 0.000000 -0.000000 6.152246 -0.000000 7.815455 92.620528 -13.675132 61.267766 -0.000000 -8.753271 -0.000000 5.974090 13.577616 -45.641426 0.000000 -0.000000 -0.000000 -11.988012 0.000000 -6.190801 -97.702940 -7.676022 -14.607643 -0.000015 -5.699961 -0.000001 4.104326 15.539901 18.285124 0.000000 0.000000 -0.000000 0.000000 0.000000 -0.000000 -0.674341 16.264167 0.311894 -0.000000 -0.000000 -0.000000 
-224.608200 88.301000 -68.013000 -1.225524 -0.646061 1.185798 -0.027321 -4.945709 -15.614559 -0.000000 8.923822 0.000000 -6.897738 -45.579830 -27.316682 -0.000000 0.498243 -0.000000 -0.000000 -0.000000 -0.000000 1.624938 -3.693296 8.384822 0.000000 6.589922 -0.000000 -2.539495 -50.882514 -9.637496 -0.000000 1.295525 -0.000000 -0.000000 -0.000000 0.000000 2.931705 -0.424069 0.943458 0.000000 2.800807 -0.000000 -0.000000 0.000000 -0.000000 6.224452 -0.000000 7.911154 92.738802 -13.690364 61.304752 0.000000 -8.750244 -0.000000 5.989795 13.578362 -45.783854 -0.000000 0.000000 -0.000000 -12.034406 0.000000 -6.309739 -97.681823 -7.658271 -14.568354 -0.000015 -5.661348 -0.000001 4.052331 15.544553 18.429359 0.000000 0.000000 0.000000 -0.000000 0.000000 -0.000000 -0.672326 16.395740 0.272088 -0.000000 0.000000 -0.000000 
-224.592900 88.298000 -67.972600 -1.225158 -0.680517 1.098305 -0.025073 -4.902235 -15.451094 0.000000 8.936103 -0.000000 -6.943185 -45.595627 -27.442195 -0.000000 0.446304 -0.000000 -0.000000 0.000000 -0.000000 1.616321 -3.624051 8.375875 0.000000 6.599616 -0.000000 -2.398020 -50.930087 -9.507021 -0.000000 1.246482 -0.000000 -0.000000 0.000000 -0.000000 2.901805 -0.449243 0.935587 0.000000 2.812468 -0.000000 0.000000 -0.000000 -0.000000 6.291712 0.000000 7.945546 92.771084 -13.701658 61.196847 0.000000 -8.802293 0.000000 6.037143 13.551086 -45.886017 -0.000000 0.000000 -0.000000 -12.012642 -0.000000 -6.377799 -97.704137 -7.691229 -14.429579 -0.000015 -5.608169 -0.000001 4.188702 15.724176 18.439807 0.000000 0.000000 0.000000 0.000000 -0.000000 -0.000000 -0.685759 16.553564 0.266089 -0.000000 0.000000 -0.000000 
-224.580500 88.296800 -67.944600 -1.232506 -0.711456 0.997593 -0.034348 -4.907901 -15.421577 -0.000000 9.029005 -0.000000 -6.884093 -45.604608 -27.317958 -0.000000 0.389051 -0.000000 -0.000000 0.000000 0.000000 1.616972 -3.579641 8.453900 0.000000 6.648823 -0.000000 -2.244020 -51.031324 -9.450965 0.000000 1.354119 -0.000000 -0.000000 -0.000000 -0.000000 2.881474 -0.450249 0.918174 -0.000000 2.800735 0.000000 -0.000000 0.000000 -0.000000 6.348752 -0.000000 7.954856 92.795781 -13.706060 61.002222 0.000000 -8.802262 -0.000000 5.920866 13.465098 -45.833734 0.000000 0.000000 -0.000000 -12.000441 -0.000000 -6.376293 -97.684207 -7.720152 -14.346573 -0.000015 -5.556585 -0.000001 4.198609 15.694339 18.452876 0.000000 0.000000 -0.000000 -0.000000 0.000000 -0.000000 -0.688750 16.659144 0.391865 -0.000000 0.000000 -0.000000 
-224.563800 88.294200 -67.923600 -1.243338 -0.746769 0.888860 -0.034484 -4.907473 -15.365057 -0.000000 9.103494 0.000000 -6.863889 -45.660263 -27.300498 0.000000 0.457076 0.000000 -0.000000 0.000000 -0.000000 1.621652 -3.538848 8.513751 -0.000000 6.697141 0.000000 -2.165543 -51.085362 -9.388212 0.000000 1.315560 -0.000000 -0.000000 0.000000 -0.000000 2.880003 -0.438426 0.931592 0.000000 2.794710 -0.000000 -0.000000 0.000000 -0.000000 6.363626 -0.000000 8.019922 92.878460 -13.860946 60.851832 0.000000 -8.741368 -0.000000 6.059229 13.471030 -45.976516 -0.000000 0.000000 -0.000000 -11.987380 -0.000000 -6.381743 -97.688023 -7.750062 -14.155105 -0.000015 -5.592503 -0.000001 4.162635 15.750007 18.535683 0.000000 -0.000000 -0.000000 -0.000000 0.000000 -0.000000 -0.669022 16.747736 0.397100 -0.000000 0.000000 -0.000000 
-224.549100 88.291900 -67.908200 -1.245692 -0.786115 0.788099 -0.049077 -4.904701 -15.301141 -0.000000 9.179238 0.000000 -6.799050 -45.668822 -27.225301 -0.000000 0.434464 -0.000000 -0.000000 0.000000 -0.000000 1.618363 -3.483993 8.603786 0.000000 6.715708 0.000000 -2.131129 -51.104225 -9.347280 -0.000000 1.362008 -0.000000 -0.000000 0.000000 -0.000000 2.866336 -0.415573 0.944750 -0.000000 2.809526 -0.000000 -0.000000 0.000000 0.000000 6.421103 -0.000000 8.017514 92.876248 -13.904799 60.711435 0.000000 -8.767833 0.000000 5.935400 13.531658 -45.943004 -0.000000 0.000000 0.000000 -11.977295 0.000000 -6.430267 -97.695989 -7.858525 -13.999708 -0.000015 -5.547545 -0.000001 4.193163 15.619242 18.628240 -0.000000 0.000000 0.000000 -0.000000 0.000000 0.000000 -0.676519 16.794983 0.385184 0.000000 -0.000000 -0.000000 
-224.535100 88.291800 -67.894400 -1.262673 -0.805166 0.700013 -0.021383 -4.866137 -15.130440 -0.000000 9.129490 -0.000000 -6.844373 -45.641564 -27.359811 0.000000 0.435079 -0.000000 -0.000000 0.000000 -0.000000 1.627430 -3.454059 8.593230 0.000000 6.735965 -0.000000 -1.988749 -51.156547 -9.202615 0.000000 1.367608 -0.000000 -0.000000 0.000000 -0.000000 2.873142 -0.396737 0.912868 0.000000 2.797187 -0.000000 -0.000000 -0.000000 -0.000000 6.457296 -0.000000 8.018037 92.903130 -13.912602 60.554893 -0.000000 -8.756220 0.000000 5.918846 13.524698 -45.908022 0.000000 -0.000000 -0.000000 -11.970617 0.000000 -6.407279 -97.703882 -7.933311 -13.947268 -0.000015 -5.554637 -0.000001 4.299305 15.753934 18.670907 -0.000000 0.000000 -0.000000 -0.000000 -0.000000 -0.000000 -0.672782 16.785759 0.454214 0.000000 0.000000 -0.000000 
-224.518500 88.291000 -67.888800 -1.262889 -0.793257 0.643804 -0.048903 -4.923972 -15.224567 -0.000000 9.227642 -0.000000 -6.748173 -45.697660 -27.160091 0.000000 0.513129 0.000000 0.000000 0.000000 -0.000000 1.618336 -3.447511 8.631561 -0.000000 6.724025 0.000000 -1.973067 -51.163338 -9.185274 -0.000000 1.354154 -0.000000 0.000000 -0.000000 0.000000 2.868476 -0.401971 0.872365 0.000000 2.788141 -0.000000 0.000000 0.000000 -0.000000 6.444286 0.000000 8.032846 93.017158 -13.946589 60.455760 0.000000 -8.735184 -0.000000 6.006743 13.497904 -45.982949 0.000000 0.000000 -0.000000 -11.974213 -0.000000 -6.389559 -97.738152 -7.981705 -13.835832 -0.000015 -5.555633 -0.000001 4.150860 15.653569 18.784924 -0.000000 0.000000 -0.000000 0.000000 0.000000 -0.000000 -0.670186 16.754341 0.402740 -0.000000 0.000000 -0.000000 
-224.508200 88.290900 -67.893400 -1.269382 -0.775024 0.603814 -0.049248 -4.938991 -15.196956 -0.000000 9.207549 0.000000 -6.660701 -45.689969 -27.134332 0.000000 0.454862 0.000000 0.000000 0.000000 -0.000000 1.616697 -3.437580 8.694500 0.000000 6.675379 -0.000000 -1.979849 -51.157040 -9.212042 -0.000000 1.356810 -0.000000 -0.000000 0.000000 -0.000000 2.870915 -0.398394 0.848333 0.000000 2.781604 0.000000 0.000000 -0.000000 -0.000000 6.496610 -0.000000 8.034449 93.005467 -13.966338 60.342556 0.000000 -8.844219 0.000000 5.938000 13.541519 -45.970779 0.000000 -0.000000 -0.000000 -11.977170 -0.000000 -6.380416 -97.781048 -7.995246 -13.811114 -0.000015 -5.529078 -0.000001 4.111653 15.524056 18.798510 0.000000 0.000000 -0.000000 0.000000 -0.000000 -0.000000 -0.645731 16.659415 0.406655 -0.000000 0.000000 -0.000000 
-224.493600 88.288900 -67.902400 -1.267909 -0.739755 0.565032 -0.057554 -4.986079 -15.191952 0.000000 9.210334 0.000000 -6.659476 -45.677228 -27.069873 -0.000000 0.515715 -0.000000 0.000000 -0.000000 -0.000000 1.606676 -3.496234 8.644529 -0.000000 6.721912 -0.000000 -1.877893 -51.187308 -9.071241 -0.000000 1.384864 -0.000000 0.000000 0.000000 0.000000 2.868600 -0.406142 0.831364 0.000000 2.776594 -0.000000 -0.000000 0.000000 -0.000000 6.518411 0.000000 8.026627 93.068931 -13.983321 60.216158 -0.000000 -8.822837 -0.000000 5.772392 13.644893 -46.017173 -0.000000 0.000000 -0.000000 -12.014917 -0.000000 -6.397471 -97.755406 -8.031653 -13.811188 -0.000015 -5.604169 -0.000001 4.127658 15.737814 18.837606 -0.000000 -0.000000 -0.000000 -0.000000 0.000000 -0.000000 -0.588612 16.543579 0.476761 0.000000 0.000000 0.000000 
